# xmcd CD database file
#
# Track frame offsets:
#	150
#	18753
#	40534
#	61753
#	94817
#	110951
#	140129
#	169713
#	193225
#
# Disc length: 2771 seconds
#
# Revision: 0
# Processed by: cddbd v1.5PL3 Copyright (c) Steve Scherf et al.
# Submitted via: CDex 1.51
#
DISCID=780ad109
DTITLE=サイケアウツ - 寂滅
DYEAR=1900
DGENRE=Electronic
TTITLE0=サイバーパイレーツ (デラーズmix)
TTITLE1=クロックワーク アーメン (ウィストンmix)
TTITLE2=ファイトザポール (エレクトロmix)
TTITLE3=ナムコキラー92 (ミニーハウスmix)
TTITLE4=ライオットショ−グン (ヒトラーのしっぽmix)
TTITLE5=ヘルボロ (ファンキーヘルmix)
TTITLE6=ダブキラー91 (ミニーハウスmix)
TTITLE7=赤いスイセイ (光る宇宙mix)
TTITLE8=エレクトリカルNO.9 (アナハイムmix)
EXTD=
EXTT0=
EXTT1=
EXTT2=
EXTT3=
EXTT4=
EXTT5=
EXTT6=
EXTT7=
EXTT8=
PLAYORDER=
